<svg width="77" height="78" viewBox="0 0 77 78" fill="none" xmlns="http://www.w3.org/2000/svg">
<path d="M38.3425 73.1801C36.1912 73.1808 34.0443 72.9854 31.9285 72.5962L32.33 70.4212C34.3133 70.7864 36.3258 70.9701 38.3425 70.9701V73.1801ZM29.1463 71.9627C27.0683 71.3981 25.0468 70.6432 23.1075 69.7074L24.0694 67.7149C25.8852 68.592 27.7782 69.2991 29.7244 69.8271L29.1463 71.9627ZM20.5895 68.363C18.7341 67.2712 16.9825 66.0121 15.3564 64.6013L16.8074 62.93C18.3306 64.2523 19.9719 65.4324 21.7105 66.4552L20.5895 68.363ZM13.2792 62.6453C11.7738 61.1077 10.4121 59.4357 9.211 57.6502L11.0459 56.4153C12.1722 58.0885 13.4489 59.6555 14.8601 61.0966L13.2792 62.6453ZM7.71625 55.2198C6.66412 53.3424 5.78797 51.3716 5.099 49.3328L7.19514 48.6248C7.84065 50.5341 8.66108 52.3797 9.64599 54.1381L7.71625 55.2198ZM4.2976 46.5929C3.77917 44.5042 3.45375 42.3723 3.32544 40.2241L5.53399 40.0928C5.65364 42.1052 5.95855 44.1022 6.44485 46.0586L4.2976 46.5929Z" fill="#CFFF04"/>
<path d="M38.3423 73.18V70.9685C56.4661 70.9685 71.2121 56.2254 71.2121 38.0987H73.4236C73.4272 42.7067 72.5223 47.2701 70.7606 51.5281C68.9989 55.786 66.415 59.6547 63.1566 62.9131C59.8983 66.1714 56.0295 68.7553 51.7716 70.517C47.5137 72.2787 42.9503 73.1836 38.3423 73.18Z" fill="#08E2F0"/>
<path d="M71.1523 36.103C71.0312 34.0907 70.7263 32.0938 70.2414 30.1371L72.3886 29.6028C72.9071 31.6915 73.2325 33.8234 73.3608 35.9716L71.1523 36.103ZM69.4896 27.5739C68.8441 25.6646 68.0237 23.8189 67.0388 22.0605L68.97 20.9789C70.0206 22.8569 70.8962 24.8275 71.5858 26.8659L69.4896 27.5739ZM65.6389 19.7833C64.5136 18.1098 63.2373 16.5428 61.8261 15.1021L63.4056 13.5548C64.9114 15.0919 66.2736 16.7634 67.4752 18.5484L65.6389 19.7833ZM59.8774 13.2687C58.3544 11.9467 56.7136 10.7667 54.9757 9.74347L56.0968 7.83707C57.9517 8.92823 59.7029 10.1869 61.3284 11.5973L59.8774 13.2687ZM52.6154 8.48372C50.7997 7.60686 48.9066 6.90026 46.9604 6.37298L47.5443 4.2374C49.6226 4.80033 51.6442 5.55486 53.5831 6.49122L52.6154 8.48372ZM44.3534 5.77886C42.3705 5.41423 40.3585 5.23101 38.3423 5.23147V3.01856C40.4936 3.01787 42.6405 3.21331 44.7563 3.60244L44.3534 5.77886Z" fill="#CFFF04"/>
<path d="M5.47259 38.0984H3.25965C3.25601 33.4902 4.16096 28.9265 5.92274 24.6684C7.68452 20.4104 10.2686 16.5414 13.527 13.283C16.7855 10.0245 20.6544 7.44047 24.9125 5.67869C29.1706 3.91691 33.7343 3.01196 38.3424 3.01561V5.22852C20.2172 5.22852 5.47259 19.9731 5.47259 38.0984Z" fill="#08E2F0"/>
<path d="M38.3423 67.6431C31.5074 67.6429 24.884 65.2728 19.6007 60.9366C14.3174 56.6004 10.701 50.5665 9.36774 43.8629C8.03448 37.1593 9.06684 30.2008 12.2889 24.173C15.511 18.1452 20.7234 13.4211 27.0381 10.8055C33.3527 8.19003 40.3789 7.84493 46.9195 9.82905C53.4601 11.8132 59.1104 16.0037 62.9076 21.6868C66.7049 27.3698 68.4142 34.1936 67.7443 40.9956C67.0744 47.7976 64.0667 54.1569 59.2337 58.99C56.4969 61.7425 53.2412 63.9247 49.6551 65.41C46.069 66.8954 42.2238 67.6544 38.3423 67.6431ZM38.3423 10.4224C23.0781 10.4224 10.6603 22.8401 10.6603 38.1044C10.6603 53.3686 23.0781 65.7864 38.3423 65.7864C53.6065 65.7864 66.0243 53.3671 66.0243 38.1044C66.0243 22.8416 53.6065 10.4165 38.3423 10.4165V10.4224Z" fill="#08E2F0"/>
<path d="M38.3424 69.176C31.1521 69.1764 24.1841 66.6835 18.6257 62.1223C13.0674 57.5611 9.26254 51.2136 7.85952 44.1615C6.45651 37.1095 7.54214 29.7891 10.9314 23.4477C14.3207 17.1063 19.804 12.1363 26.4469 9.38451C33.0898 6.63274 40.4813 6.26948 47.362 8.35658C54.2428 10.4437 60.1869 14.852 64.1817 20.8305C68.1765 26.809 69.9748 33.9877 69.27 41.1433C68.5653 48.299 65.4012 54.9889 60.3169 60.0732C57.4381 62.9683 54.0135 65.2635 50.2416 66.826C46.4696 68.3885 42.4252 69.1873 38.3424 69.176ZM38.3424 7.29733C21.3586 7.29733 7.54244 21.1135 7.54244 38.0973C7.54244 55.0811 21.3601 68.8972 38.3424 68.8972C55.3247 68.8972 69.1424 55.0796 69.1424 38.0973C69.1424 21.115 55.3262 7.29733 38.3424 7.29733Z" fill="#08E2F0"/>
<path d="M44.6774 78.0002L44.2804 75.4836C49.5858 74.6551 54.6506 72.6935 59.1301 69.7324L60.5314 71.8591C55.749 75.0208 50.3417 77.1154 44.6774 78.0002Z" fill="#CFFF04"/>
<path d="M62.8583 70.2078L60.7111 68.8852C65.4656 65.2392 69.4 60.6338 72.2588 55.3683L73.901 57.282C71.1734 62.3215 67.41 66.7266 62.8583 70.2078Z" fill="#CFFF04"/>
<path d="M2.41728 26.1503L0 25.3475C1.8108 19.9089 4.75913 14.9184 8.6488 10.708L10.5201 12.4363C6.87021 16.3761 4.10718 21.0525 2.41728 26.1503Z" fill="#CFFF04"/>
<path d="M11.0632 11.6252L10.7435 8.90866C14.9154 4.97763 19.8758 1.97921 25.2954 0.112457L27.5507 1.65973C21.4058 3.76506 15.7837 7.16323 11.0632 11.6252Z" fill="#CFFF04"/>
<path d="M13.8864 38.0987H12.2399C12.2406 31.1761 14.991 24.5373 19.886 19.6423C24.781 14.7472 31.4199 11.9969 38.3425 11.9961V13.6427C24.8576 13.6427 13.8864 24.6139 13.8864 38.0987Z" fill="#CFFF04"/>
<path d="M38.3423 64.1998V62.5533C51.8271 62.5533 62.7969 51.5836 62.7969 38.0987H64.4434C64.4436 41.5264 63.7686 44.9206 62.457 48.0874C61.1453 51.2543 59.2228 54.1317 56.799 56.5554C54.3752 58.9792 51.4978 60.9018 48.331 62.2134C45.1642 63.525 41.77 64.2 38.3423 64.1998Z" fill="#CFFF04"/>
<path d="M3.55597 38.0985H0.236579C0.233509 33.0945 1.21686 28.1389 3.1304 23.5152C5.04394 18.8915 7.85014 14.6903 11.3885 11.152C14.9269 7.61357 19.1281 4.80735 23.7518 2.89381C28.3755 0.980269 33.3311 -0.00306326 38.3351 7.16834e-06V3.31793C19.1618 3.31209 3.55597 18.9179 3.55597 38.0985Z" fill="#08E2F0"/>
<path d="M38.3423 76.2031V72.8837C57.5229 72.8837 73.1273 57.2794 73.1273 38.0987H76.4467C76.4497 43.1028 75.4664 48.0583 73.5528 52.682C71.6393 57.3057 68.8331 61.5069 65.2947 65.0453C61.7563 68.5837 57.5552 71.3899 52.9314 73.3034C48.3077 75.217 43.3522 76.2003 38.3481 76.1973L38.3423 76.2031Z" fill="#08E2F0"/>
<rect opacity="0.07" x="15" y="16" width="46.6729" height="46.6729" rx="23.3364" fill="#08E2F0"/>
<path d="M42.1111 37.8505L35.8055 49H44.6944L51 37.8505L44.8611 27H35.9722L42.1111 37.8505ZM39.1944 37.8505L33.0556 27H24.1667L30.3055 37.8505L24 49H32.8889L39.1944 37.8505Z" fill="#08E2F0"/>
</svg>
