<?xml version="1.0" standalone="no"?>
<!DOCTYPE svg PUBLIC "-//W3C//DTD SVG 20010904//EN"
 "http://www.w3.org/TR/2001/REC-SVG-20010904/DTD/svg10.dtd">
<svg version="1.0" xmlns="http://www.w3.org/2000/svg"
 width="284.000000pt" height="284.000000pt" viewBox="0 0 284.000000 284.000000"
 preserveAspectRatio="xMidYMid meet">
<metadata>
Created by potrace 1.14, written by Peter Selinger 2001-2017
</metadata>
<g transform="translate(0.000000,284.000000) scale(0.100000,-0.100000)"
fill="#000000" stroke="none">
<path d="M100 1420 l0 -1420 1320 0 1320 0 0 328 0 327 -895 0 c-492 -1 -895
2 -895 5 0 13 -48 59 -79 75 -47 24 -139 16 -186 -16 -129 -89 -61 -268 103
-269 69 0 117 21 142 63 l20 34 835 0 835 0 0 -219 0 -218 -22 -1 c-29 -1
-2360 -1 -2370 0 -5 1 -8 590 -8 1311 l0 1310 315 0 315 0 0 55 0 55 -375 0
-375 0 0 -1420z m730 1365 l0 -35 -315 0 c-293 0 -315 -1 -316 -17 0 -10 -1
-609 -2 -1330 -1 -869 1 -1313 8 -1314 26 -3 2421 -4 2430 -2 8 3 12 372 6
471 -1 9 -179 12 -855 12 l-854 0 -10 -29 c-29 -82 -176 -97 -247 -25 -109
108 49 269 192 196 21 -11 46 -33 55 -50 l18 -30 887 1 888 0 3 -306 2 -307
-1300 0 -1300 0 0 1400 0 1400 355 0 355 0 0 -35z"/>
</g>
</svg>
