<svg width="69" height="69" viewBox="0 0 69 69" fill="none" xmlns="http://www.w3.org/2000/svg">
<g filter="url(#filter0_f_53_219)">
<path d="M42.1896 27.3106C42.2352 27.356 42.2714 27.4101 42.296 27.4695C42.3207 27.529 42.3334 27.5928 42.3334 27.6572C42.3334 27.7216 42.3207 27.7853 42.296 27.8448C42.2714 27.9043 42.2352 27.9583 42.1896 28.0038L38.1293 32.0632H40.8639C40.9937 32.0632 41.1183 32.1147 41.2101 32.2065C41.3019 32.2983 41.3535 32.4229 41.3535 32.5527C41.3535 32.6825 41.3019 32.8071 41.2101 32.8989C41.1183 32.9907 40.9937 33.0423 40.8639 33.0423H36.9476C36.8177 33.0423 36.6932 32.9907 36.6014 32.8989C36.5096 32.8071 36.458 32.6825 36.458 32.5527V28.6363C36.458 28.5064 36.5096 28.3819 36.6014 28.2901C36.6932 28.1983 36.8177 28.1467 36.9476 28.1467C37.0774 28.1467 37.2019 28.1983 37.2937 28.2901C37.3855 28.3819 37.4371 28.5064 37.4371 28.6363V31.3709L41.4964 27.3106C41.5419 27.265 41.5959 27.2288 41.6554 27.2041C41.7148 27.1795 41.7786 27.1667 41.843 27.1667C41.9074 27.1667 41.9711 27.1795 42.0306 27.2041C42.0901 27.2288 42.1441 27.265 42.1896 27.3106ZM30.2448 28.4679C30.187 28.3935 30.114 28.3323 30.0308 28.2883C29.9475 28.2443 29.8558 28.2186 29.7618 28.2127C29.6678 28.2069 29.5737 28.2211 29.4856 28.2545C29.3975 28.2878 29.3176 28.3396 29.251 28.4062L28.2386 29.4196C27.7657 29.8935 27.5915 30.5641 27.7981 31.1526C28.6555 33.5882 30.0502 35.7995 31.8789 37.6225C33.7018 39.4512 35.9131 40.846 38.3486 41.7034C38.9371 41.91 39.6078 41.7357 40.0816 41.2628L41.094 40.2504C41.1606 40.1839 41.2123 40.1039 41.2457 40.0158C41.279 39.9278 41.2933 39.8336 41.2874 39.7396C41.2816 39.6456 41.2558 39.5539 41.2119 39.4707C41.1679 39.3874 41.1067 39.3144 41.0323 39.2566L38.7736 37.5001C38.6941 37.4385 38.6018 37.3958 38.5034 37.3751C38.405 37.3544 38.3032 37.3563 38.2057 37.3807L36.0615 37.9162C35.7753 37.9878 35.4755 37.984 35.1912 37.9052C34.9068 37.8265 34.6478 37.6754 34.4392 37.4668L32.0345 35.0612C31.8258 34.8527 31.6746 34.5936 31.5956 34.3093C31.5167 34.025 31.5128 33.7251 31.5842 33.4388L32.1207 31.2946C32.1451 31.197 32.147 31.0952 32.1263 30.9969C32.1056 30.8985 32.0629 30.8061 32.0013 30.7267L30.2448 28.4679ZM28.5118 27.6679C28.6831 27.4966 28.889 27.3636 29.1156 27.2778C29.3423 27.1921 29.5846 27.1556 29.8265 27.1707C30.0684 27.1857 30.3043 27.2521 30.5185 27.3654C30.7328 27.4786 30.9205 27.6362 31.0692 27.8275L32.8256 30.0854C33.1478 30.4995 33.2613 31.039 33.1341 31.5481L32.5985 33.6924C32.5708 33.8034 32.5723 33.9198 32.6028 34.0301C32.6334 34.1404 32.6919 34.2409 32.7728 34.322L35.1784 36.7276C35.2595 36.8086 35.3602 36.8673 35.4707 36.8978C35.5812 36.9284 35.6977 36.9298 35.8089 36.9019L37.9521 36.3663C38.2034 36.3035 38.4656 36.2986 38.719 36.3521C38.9724 36.4055 39.2104 36.5158 39.4149 36.6747L41.6726 38.4313C42.4843 39.0628 42.5587 40.2622 41.8322 40.9877L40.8199 42.0001C40.0953 42.7246 39.0125 43.0428 38.003 42.6874C35.4194 41.7784 33.0736 40.2992 31.1397 38.3598C29.2004 36.4261 27.7213 34.0806 26.8121 31.4972C26.4577 30.4888 26.7759 29.4049 27.5004 28.6803L28.5128 27.6679H28.5118Z" fill="#08E2F0"/>
</g>
<path d="M42.1896 27.3106C42.2352 27.356 42.2714 27.4101 42.296 27.4695C42.3207 27.529 42.3334 27.5928 42.3334 27.6572C42.3334 27.7216 42.3207 27.7853 42.296 27.8448C42.2714 27.9043 42.2352 27.9583 42.1896 28.0038L38.1293 32.0632H40.8639C40.9937 32.0632 41.1183 32.1147 41.2101 32.2065C41.3019 32.2983 41.3535 32.4229 41.3535 32.5527C41.3535 32.6825 41.3019 32.8071 41.2101 32.8989C41.1183 32.9907 40.9937 33.0423 40.8639 33.0423H36.9476C36.8177 33.0423 36.6932 32.9907 36.6014 32.8989C36.5096 32.8071 36.458 32.6825 36.458 32.5527V28.6363C36.458 28.5064 36.5096 28.3819 36.6014 28.2901C36.6932 28.1983 36.8177 28.1467 36.9476 28.1467C37.0774 28.1467 37.2019 28.1983 37.2937 28.2901C37.3855 28.3819 37.4371 28.5064 37.4371 28.6363V31.3709L41.4964 27.3106C41.5419 27.265 41.5959 27.2288 41.6554 27.2041C41.7148 27.1795 41.7786 27.1667 41.843 27.1667C41.9074 27.1667 41.9711 27.1795 42.0306 27.2041C42.0901 27.2288 42.1441 27.265 42.1896 27.3106ZM30.2448 28.4679C30.187 28.3935 30.114 28.3323 30.0308 28.2883C29.9475 28.2443 29.8558 28.2186 29.7618 28.2127C29.6678 28.2069 29.5737 28.2211 29.4856 28.2545C29.3975 28.2878 29.3176 28.3396 29.251 28.4062L28.2386 29.4196C27.7657 29.8935 27.5915 30.5641 27.7981 31.1526C28.6555 33.5882 30.0502 35.7995 31.8789 37.6225C33.7018 39.4512 35.9131 40.846 38.3486 41.7034C38.9371 41.91 39.6078 41.7357 40.0816 41.2628L41.094 40.2504C41.1606 40.1839 41.2123 40.1039 41.2457 40.0158C41.279 39.9278 41.2933 39.8336 41.2874 39.7396C41.2816 39.6456 41.2558 39.5539 41.2119 39.4707C41.1679 39.3874 41.1067 39.3144 41.0323 39.2566L38.7736 37.5001C38.6941 37.4385 38.6018 37.3958 38.5034 37.3751C38.405 37.3544 38.3032 37.3563 38.2057 37.3807L36.0615 37.9162C35.7753 37.9878 35.4755 37.984 35.1912 37.9052C34.9068 37.8265 34.6478 37.6754 34.4392 37.4668L32.0345 35.0612C31.8258 34.8527 31.6746 34.5936 31.5956 34.3093C31.5167 34.025 31.5128 33.7251 31.5842 33.4388L32.1207 31.2946C32.1451 31.197 32.147 31.0952 32.1263 30.9969C32.1056 30.8985 32.0629 30.8061 32.0013 30.7267L30.2448 28.4679ZM28.5118 27.6679C28.6831 27.4966 28.889 27.3636 29.1156 27.2778C29.3423 27.1921 29.5846 27.1556 29.8265 27.1707C30.0684 27.1857 30.3043 27.2521 30.5185 27.3654C30.7328 27.4786 30.9205 27.6362 31.0692 27.8275L32.8256 30.0854C33.1478 30.4995 33.2613 31.039 33.1341 31.5481L32.5985 33.6924C32.5708 33.8034 32.5723 33.9198 32.6028 34.0301C32.6334 34.1404 32.6919 34.2409 32.7728 34.322L35.1784 36.7276C35.2595 36.8086 35.3602 36.8673 35.4707 36.8978C35.5812 36.9284 35.6977 36.9298 35.8089 36.9019L37.9521 36.3663C38.2034 36.3035 38.4656 36.2986 38.719 36.3521C38.9724 36.4055 39.2104 36.5158 39.4149 36.6747L41.6726 38.4313C42.4843 39.0628 42.5587 40.2622 41.8322 40.9877L40.8199 42.0001C40.0953 42.7246 39.0125 43.0428 38.003 42.6874C35.4194 41.7784 33.0736 40.2992 31.1397 38.3598C29.2004 36.4261 27.7213 34.0806 26.8121 31.4972C26.4577 30.4888 26.7759 29.4049 27.5004 28.6803L28.5128 27.6679H28.5118Z" fill="#08E2F0"/>
<rect opacity="0.14" x="14.4329" y="14.5212" width="40.3795" height="40.3795" rx="20.1897" fill="#08E2F0"/>
<g filter="url(#filter1_f_53_219)">
<path d="M34.5 57C22.0929 57 12 46.9071 12 34.5C12 22.0929 22.0929 12 34.5 12C46.9071 12 57 22.0929 57 34.5C57 46.9071 46.9071 57 34.5 57ZM34.5 12.8036C22.5368 12.8036 12.8036 22.5368 12.8036 34.5C12.8036 46.4632 22.5368 56.1964 34.5 56.1964C46.4632 56.1964 56.1964 46.4632 56.1964 34.5C56.1964 22.5368 46.4632 12.8036 34.5 12.8036Z" fill="#08E2F0"/>
<path d="M31.3661 52.956C31.344 52.956 31.3199 52.9559 31.2978 52.9499C23.4791 51.6019 17.3458 45.4385 16.036 37.6138C15.9998 37.3948 16.1465 37.1879 16.3655 37.1517C16.5844 37.1156 16.7914 37.2622 16.8275 37.4812C18.0811 44.9684 23.9512 50.8667 31.4324 52.1564C31.6514 52.1946 31.7981 52.4015 31.7599 52.6205C31.7257 52.8153 31.557 52.9539 31.3641 52.9539L31.3661 52.956Z" fill="#08E2F0"/>
<path d="M37.8389 52.9198C37.6481 52.9198 37.4793 52.7852 37.4452 52.5903C37.405 52.3714 37.5496 52.1624 37.7666 52.1222C45.1434 50.7642 50.9331 44.8801 52.1726 37.4812C52.2088 37.2622 52.4177 37.1156 52.6347 37.1517C52.8537 37.1879 53.0003 37.3948 52.9642 37.6138C51.6684 45.3441 45.6195 51.4914 37.9112 52.9118C37.8871 52.9158 37.863 52.9178 37.8389 52.9178V52.9198Z" fill="#08E2F0"/>
<path d="M52.4999 31.4706C52.3111 31.4706 52.1424 31.336 52.1062 31.1431C50.7442 23.9532 44.9946 18.2217 37.8006 16.8817C37.5816 16.8415 37.439 16.6306 37.4792 16.4136C37.5194 16.1947 37.7283 16.052 37.9473 16.0922C45.4647 17.4924 51.4714 23.479 52.8957 30.9924C52.9379 31.2094 52.7933 31.4203 52.5763 31.4625C52.5502 31.4666 52.5261 31.4706 52.502 31.4706H52.4999Z" fill="#08E2F0"/>
<path d="M16.5061 31.4404C16.482 31.4404 16.4559 31.4384 16.4298 31.4324C16.2128 31.3902 16.0682 31.1813 16.1103 30.9623C17.5648 23.3565 23.6679 17.3639 31.2958 16.048C31.5148 16.0099 31.7217 16.1565 31.7599 16.3755C31.7981 16.5945 31.6514 16.8014 31.4324 16.8396C24.13 18.0992 18.29 23.8347 16.8999 31.113C16.8637 31.3059 16.6949 31.4384 16.5061 31.4384V31.4404Z" fill="#08E2F0"/>
</g>
<path d="M34.5 57C22.0929 57 12 46.9071 12 34.5C12 22.0929 22.0929 12 34.5 12C46.9071 12 57 22.0929 57 34.5C57 46.9071 46.9071 57 34.5 57ZM34.5 12.8036C22.5368 12.8036 12.8036 22.5368 12.8036 34.5C12.8036 46.4632 22.5368 56.1964 34.5 56.1964C46.4632 56.1964 56.1964 46.4632 56.1964 34.5C56.1964 22.5368 46.4632 12.8036 34.5 12.8036Z" fill="#08E2F0"/>
<path d="M31.3661 52.956C31.344 52.956 31.3199 52.9559 31.2978 52.9499C23.4791 51.6019 17.3458 45.4385 16.036 37.6138C15.9998 37.3948 16.1465 37.1879 16.3655 37.1517C16.5844 37.1156 16.7914 37.2622 16.8275 37.4812C18.0811 44.9684 23.9512 50.8667 31.4324 52.1564C31.6514 52.1946 31.7981 52.4015 31.7599 52.6205C31.7257 52.8153 31.557 52.9539 31.3641 52.9539L31.3661 52.956Z" fill="#08E2F0"/>
<path d="M37.8389 52.9198C37.6481 52.9198 37.4793 52.7852 37.4452 52.5903C37.405 52.3714 37.5496 52.1624 37.7666 52.1222C45.1434 50.7642 50.9331 44.8801 52.1726 37.4812C52.2088 37.2622 52.4177 37.1156 52.6347 37.1517C52.8537 37.1879 53.0003 37.3948 52.9642 37.6138C51.6684 45.3441 45.6195 51.4914 37.9112 52.9118C37.8871 52.9158 37.863 52.9178 37.8389 52.9178V52.9198Z" fill="#08E2F0"/>
<path d="M52.4999 31.4706C52.3111 31.4706 52.1424 31.336 52.1062 31.1431C50.7442 23.9532 44.9946 18.2217 37.8006 16.8817C37.5816 16.8415 37.439 16.6306 37.4792 16.4136C37.5194 16.1947 37.7283 16.052 37.9473 16.0922C45.4647 17.4924 51.4714 23.479 52.8957 30.9924C52.9379 31.2094 52.7933 31.4203 52.5763 31.4625C52.5502 31.4666 52.5261 31.4706 52.502 31.4706H52.4999Z" fill="#08E2F0"/>
<path d="M16.5061 31.4404C16.482 31.4404 16.4559 31.4384 16.4298 31.4324C16.2128 31.3902 16.0682 31.1813 16.1103 30.9623C17.5648 23.3565 23.6679 17.3639 31.2958 16.048C31.5148 16.0099 31.7217 16.1565 31.7599 16.3755C31.7981 16.5945 31.6514 16.8014 31.4324 16.8396C24.13 18.0992 18.29 23.8347 16.8999 31.113C16.8637 31.3059 16.6949 31.4384 16.5061 31.4384V31.4404Z" fill="#08E2F0"/>
<path d="M50.8715 34.5155H50.6001V34.3511H50.8715V34.5155ZM50.046 34.5155H49.7747V34.3511H50.046V34.5155ZM49.2206 34.5155H48.9493V34.3511H49.2206V34.5155ZM48.3914 34.5155H48.12V34.3511H48.3914V34.5155ZM47.5659 34.5155H47.2946V34.3511H47.5659V34.5155ZM46.7367 34.5155H46.4654V34.3511H46.7367V34.5155ZM45.9113 34.5155H45.64V34.3511H45.9113V34.5155ZM45.0859 34.5155H44.8145V34.3511H45.0859V34.5155ZM44.2604 34.5155H43.9891V34.3511H44.2604V34.5155ZM43.435 34.5155H43.1637V34.3511H43.435V34.5155ZM42.6058 34.5155H42.3344V34.3511H42.6058V34.5155ZM41.7804 34.5155H41.509V34.3511H41.7804V34.5155Z" fill="#08E2F0"/>
<path d="M27.3586 34.5155H27.0873V34.3511H27.3586V34.5155ZM26.5332 34.5155H26.2619V34.3511H26.5332V34.5155ZM25.7039 34.5155H25.4326V34.3511H25.7039V34.5155ZM24.8785 34.5155H24.6072V34.3511H24.8785V34.5155ZM24.0493 34.5155H23.7779V34.3511H24.0493V34.5155ZM23.2238 34.5155H22.9525V34.3511H23.2238V34.5155ZM22.3984 34.5155H22.1271V34.3511H22.3984V34.5155ZM21.573 34.5155H21.3017V34.3511H21.573V34.5155ZM20.7476 34.5155H20.4763V34.3511H20.7476V34.5155ZM19.9222 34.5155H19.6508V34.3511H19.9222V34.5155ZM19.0967 34.5155H18.8254V34.3511H19.0967V34.5155ZM18.2713 34.5155H18V34.3511H18.2713V34.5155Z" fill="#08E2F0"/>
<path d="M34.5182 18V18.2713H34.3538V18H34.5182ZM34.5182 18.8253V19.0966H34.3538V18.8253H34.5182ZM34.5182 19.6506V19.9219H34.3538V19.6506H34.5182ZM34.5182 20.4797V20.751H34.3538V20.4797H34.5182ZM34.5182 21.305V21.5763H34.3538V21.305H34.5182ZM34.5182 22.1341V22.4054H34.3538V22.1341H34.5182ZM34.5182 22.9594V23.2307H34.3538V22.9594H34.5182ZM34.5182 23.7848V24.056H34.3538V23.7848H34.5182ZM34.5182 24.6101V24.8813H34.3538V24.6101H34.5182ZM34.5182 25.4354V25.7066H34.3538V25.4354H34.5182ZM34.5182 26.2645V26.5358H34.3538V26.2645H34.5182ZM34.5182 27.0898V27.3611H34.3538V27.0898H34.5182Z" fill="#08E2F0"/>
<path d="M34.5182 41.5097V41.7809H34.3538V41.5097H34.5182ZM34.5182 42.335V42.6062H34.3538V42.335H34.5182ZM34.5182 43.1641V43.4354H34.3538V43.1641H34.5182ZM34.5182 43.9894V44.2607H34.3538V43.9894H34.5182ZM34.5182 44.8185V45.0898H34.3538V44.8185H34.5182ZM34.5182 45.6438V45.9151H34.3538V45.6438H34.5182ZM34.5182 46.4691V46.7404H34.3538V46.4691H34.5182ZM34.5182 47.2944V47.5657H34.3538V47.2944H34.5182ZM34.5182 48.1197V48.391H34.3538V48.1197H34.5182ZM34.5182 48.9451V49.2163H34.3538V48.9451H34.5182ZM34.5182 49.7704V50.0416H34.3538V49.7704H34.5182ZM34.5182 50.5957V50.8669H34.3538V50.5957H34.5182Z" fill="#08E2F0"/>
<path d="M34.9251 34.5232H33.9506C33.9048 34.5232 33.8704 34.485 33.8704 34.4429C33.8704 34.4008 33.9086 34.3626 33.9506 34.3626H34.9251C34.9709 34.3626 35.0053 34.4008 35.0053 34.4429C35.0053 34.485 34.9671 34.5232 34.9251 34.5232Z" fill="#08E2F0"/>
<path d="M34.4359 35.0088C34.39 35.0088 34.3556 34.9706 34.3556 34.9285V33.9536C34.3556 33.9077 34.3938 33.8733 34.4359 33.8733C34.4779 33.8733 34.5161 33.9115 34.5161 33.9536V34.9285C34.5161 34.9744 34.4779 35.0088 34.4359 35.0088Z" fill="#08E2F0"/>
<defs>
<filter id="filter0_f_53_219" x="22.6667" y="23.1667" width="23.6667" height="23.6667" filterUnits="userSpaceOnUse" color-interpolation-filters="sRGB">
<feFlood flood-opacity="0" result="BackgroundImageFix"/>
<feBlend mode="normal" in="SourceGraphic" in2="BackgroundImageFix" result="shape"/>
<feGaussianBlur stdDeviation="2" result="effect1_foregroundBlur_53_219"/>
</filter>
<filter id="filter1_f_53_219" x="0" y="0" width="69" height="69" filterUnits="userSpaceOnUse" color-interpolation-filters="sRGB">
<feFlood flood-opacity="0" result="BackgroundImageFix"/>
<feBlend mode="normal" in="SourceGraphic" in2="BackgroundImageFix" result="shape"/>
<feGaussianBlur stdDeviation="6" result="effect1_foregroundBlur_53_219"/>
</filter>
</defs>
</svg>
