<svg width="260" height="56" viewBox="0 0 260 56" fill="none" xmlns="http://www.w3.org/2000/svg">
<g filter="url(#filter0_f_13_382)">
<mask id="path-1-outside-1_13_382" maskUnits="userSpaceOnUse" x="4" y="4" width="252" height="48" fill="black">
<rect fill="white" x="4" y="4" width="252" height="48"/>
<path d="M17.3746 40.5457C17.0959 41.5934 16.3713 42.1172 15.2007 42.1172C14.5318 42.1172 13.9744 41.9176 13.5285 41.5185C13.0825 41.1194 12.8596 40.6455 12.8596 40.0967C12.8596 39.498 13.0825 38.9992 13.5285 38.6C13.9744 38.2009 14.5318 38.0014 15.2007 38.0014C16.3713 38.0014 17.0959 38.5003 17.3746 39.498H44.5486V49.1515H5V5.14967H15.786V6.27216H6.17057C6.17057 6.27216 6.17057 20.2161 6.17057 48.1038C6.17057 48.1038 18.5731 48.1038 43.378 48.1038C43.378 48.1038 43.378 45.5845 43.378 40.5457H17.3746Z"/>
<path d="M53.211 32.0147V26.1778H73.4451V32.0147H53.211Z"/>
<path d="M116.862 13.7555V6.27216H103.066C96.6001 6.27216 91.0817 8.3176 86.5108 12.4085C81.94 16.4495 79.6546 21.3635 79.6546 27.1506C79.6546 32.9377 81.94 37.8767 86.5108 41.9675C91.0817 46.0584 96.6001 48.1038 103.066 48.1038H116.862V39.498H118.033V49.1515H103.066C99.7773 49.1515 96.6279 48.6027 93.6179 47.5052C90.6078 46.3577 87.9601 44.7613 85.6747 42.7159C80.881 38.4254 78.4841 33.237 78.4841 27.1506C78.4841 21.0642 80.881 15.8757 85.6747 11.5853C87.9601 9.53987 90.6078 7.96838 93.6179 6.87083C96.6279 5.72339 99.7773 5.14967 103.066 5.14967H118.033V14.8031H116.862C116.026 14.8031 114.632 14.8031 112.681 14.8031C110.786 14.7532 109.393 14.7283 108.501 14.7283C107.665 14.7283 106.606 14.7532 105.324 14.8031C104.097 14.853 103.01 14.9279 102.063 15.0276C97.8264 15.5265 94.6491 16.8985 92.5309 19.1434C90.8029 20.9893 89.7439 23.3092 89.3537 26.1029C89.1864 27.3003 89.2422 28.3978 89.5209 29.3956C89.6324 29.3956 89.7439 29.3956 89.8553 29.3956C90.4685 29.3956 90.998 29.5951 91.444 29.9942C91.8899 30.3934 92.1129 30.8922 92.1129 31.4909C92.1129 32.0397 91.8899 32.5136 91.444 32.9127C90.998 33.3118 90.4406 33.5114 89.7717 33.5114C89.1586 33.5114 88.629 33.3118 88.1831 32.9127C87.7372 32.5136 87.5142 32.0397 87.5142 31.4909C87.5142 30.7426 87.8208 30.1689 88.4339 29.7697C88.1552 28.6223 88.0995 27.3501 88.2667 25.9533C88.6569 22.9599 89.7996 20.4655 91.6948 18.47C94.036 16.0254 97.4362 14.5537 101.896 14.0548C103.679 13.8552 108.668 13.7555 116.862 13.7555Z"/>
<path d="M165.157 23.7831C165.157 23.7831 165.157 26.4023 165.157 31.6406C165.157 36.829 163.122 41.2441 159.053 44.886C154.984 48.5279 150.051 50.3488 144.254 50.3488C138.512 50.3488 133.579 48.5279 129.454 44.886C125.385 41.2441 123.351 36.829 123.351 31.6406V23.7831C123.351 18.5947 125.385 14.1795 129.454 10.5376C133.579 6.84588 138.512 5 144.254 5C150.051 5 154.984 6.84588 159.053 10.5376C163.122 14.1795 165.157 18.5947 165.157 23.7831ZM163.986 23.7831C163.986 18.894 162.063 14.7283 158.217 11.286C154.371 7.84366 149.716 6.12249 144.254 6.12249C138.847 6.12249 134.192 7.84366 130.29 11.286C126.444 14.7283 124.521 18.894 124.521 23.7831V31.6406C124.521 36.5297 126.444 40.6954 130.29 44.1377C134.192 47.58 138.847 49.3012 144.254 49.3012C149.716 49.3012 154.371 47.58 158.217 44.1377C162.063 40.6954 163.986 36.5297 163.986 31.6406V23.7831ZM141.996 40.845C139.711 40.396 137.815 39.3484 136.31 37.7021C134.805 36.0557 134.053 34.16 134.053 32.0147V23.4089C134.053 20.9145 135.056 18.7693 137.063 16.9733C139.07 15.1773 141.467 14.2793 144.254 14.2793C146.65 14.2793 148.769 14.9528 150.608 16.2998C152.503 17.6468 153.702 19.343 154.203 21.3884C154.761 21.4383 155.207 21.6628 155.541 22.0619C155.931 22.4611 156.127 22.91 156.127 23.4089C156.127 23.9577 155.904 24.4566 155.458 24.9056C155.012 25.3047 154.454 25.5043 153.785 25.5043C153.172 25.5043 152.643 25.3047 152.197 24.9056C151.751 24.4566 151.528 23.9577 151.528 23.4089C151.528 22.4611 152.03 21.8125 153.033 21.4633C152.531 19.7172 151.472 18.2704 149.856 17.123C148.239 15.9755 146.372 15.4018 144.254 15.4018C141.801 15.4018 139.683 16.2 137.899 17.7965C136.171 19.343 135.307 21.2138 135.307 23.4089V32.0147C135.307 33.8606 135.948 35.507 137.23 36.9537C138.512 38.4005 140.157 39.3484 142.163 39.7974C142.553 38.9493 143.25 38.5252 144.254 38.5252C144.923 38.5252 145.48 38.7248 145.926 39.1239C146.372 39.523 146.595 40.0219 146.595 40.6205C146.595 41.1693 146.372 41.6433 145.926 42.0424C145.48 42.4415 144.923 42.641 144.254 42.641C143.696 42.641 143.195 42.4664 142.749 42.1172C142.358 41.768 142.108 41.3439 141.996 40.845Z"/>
<path d="M183.294 32.9127L192.659 48.1038C192.659 48.1038 196.644 48.1038 204.615 48.1038C203.11 45.809 199.459 40.3462 193.662 31.7154L194.164 30.8922C194.164 30.8922 194.498 30.8922 195.167 30.8922C198.957 30.8922 202.19 29.6949 204.866 27.3003C207.597 24.9056 208.963 22.0121 208.963 18.6196C208.963 15.1773 207.597 12.2588 204.866 9.86415C202.19 7.46949 198.957 6.27216 195.167 6.27216H171.756V49.1515H170.585V5.14967H195.167C199.292 5.14967 202.804 6.47172 205.702 9.11582C208.656 11.71 210.134 14.878 210.134 18.6196C210.134 22.2615 208.684 25.4045 205.786 28.0486C202.887 30.6428 199.375 31.9648 195.251 32.0147L206.789 49.1515H191.906L182.291 33.4366C182.123 33.4865 181.928 33.5114 181.705 33.5114C181.092 33.5114 180.563 33.3118 180.117 32.9127C179.671 32.5136 179.448 32.0397 179.448 31.4909C179.448 30.8922 179.671 30.3934 180.117 29.9942C180.563 29.5951 181.092 29.3956 181.705 29.3956C182.374 29.3956 182.932 29.5951 183.378 29.9942C183.824 30.3934 184.047 30.8922 184.047 31.4909C184.047 32.0397 183.796 32.5136 183.294 32.9127ZM198.01 15.1773C199.069 16.1252 199.598 17.2726 199.598 18.6196C199.598 19.9167 199.069 21.0392 198.01 21.9871C196.951 22.935 195.669 23.4089 194.164 23.4089H181.12V13.7555H194.164C195.669 13.7555 196.951 14.2294 198.01 15.1773ZM197.174 21.2388C198.01 20.4904 198.428 19.6174 198.428 18.6196C198.428 17.572 198.01 16.674 197.174 15.9256C196.338 15.1773 195.334 14.8031 194.164 14.8031H182.291C182.291 14.8031 182.291 17.3225 182.291 22.3613H194.164C195.334 22.3613 196.338 21.9871 197.174 21.2388Z"/>
<path d="M228.411 30.8922H240.033C243.824 30.8922 247.057 29.6949 249.732 27.3003C252.464 24.9056 253.829 22.0121 253.829 18.6196C253.829 15.1773 252.464 12.2588 249.732 9.86415C247.057 7.46949 243.824 6.27216 240.033 6.27216H216.622V48.1038H226.237V49.1515H215.451V5.14967H240.033C244.158 5.14967 247.67 6.47172 250.569 9.11582C253.523 11.71 255 14.878 255 18.6196C255 22.3114 253.523 25.4793 250.569 28.1234C247.67 30.7176 244.158 32.0147 240.033 32.0147H228.411C228.133 33.0125 227.408 33.5114 226.237 33.5114C225.568 33.5114 225.011 33.3118 224.565 32.9127C224.119 32.5136 223.896 32.0397 223.896 31.4909C223.896 30.8922 224.119 30.3934 224.565 29.9942C225.011 29.5951 225.568 29.3956 226.237 29.3956C227.408 29.3956 228.133 29.8945 228.411 30.8922ZM242.876 15.1773C243.935 16.1252 244.465 17.2726 244.465 18.6196C244.465 19.9167 243.935 21.0392 242.876 21.9871C241.817 22.935 240.535 23.4089 239.03 23.4089H225.987V13.7555H239.03C240.535 13.7555 241.817 14.2294 242.876 15.1773ZM242.04 21.2388C242.876 20.4904 243.294 19.6174 243.294 18.6196C243.294 17.572 242.876 16.674 242.04 15.9256C241.204 15.1773 240.201 14.8031 239.03 14.8031H227.157V22.3613H239.03C240.201 22.3613 241.204 21.9871 242.04 21.2388Z"/>
</mask>
<path d="M17.3746 40.5457C17.0959 41.5934 16.3713 42.1172 15.2007 42.1172C14.5318 42.1172 13.9744 41.9176 13.5285 41.5185C13.0825 41.1194 12.8596 40.6455 12.8596 40.0967C12.8596 39.498 13.0825 38.9992 13.5285 38.6C13.9744 38.2009 14.5318 38.0014 15.2007 38.0014C16.3713 38.0014 17.0959 38.5003 17.3746 39.498H44.5486V49.1515H5V5.14967H15.786V6.27216H6.17057C6.17057 6.27216 6.17057 20.2161 6.17057 48.1038C6.17057 48.1038 18.5731 48.1038 43.378 48.1038C43.378 48.1038 43.378 45.5845 43.378 40.5457H17.3746Z" fill="url(#paint0_linear_13_382)"/>
<path d="M53.211 32.0147V26.1778H73.4451V32.0147H53.211Z" fill="url(#paint1_linear_13_382)"/>
<path d="M116.862 13.7555V6.27216H103.066C96.6001 6.27216 91.0817 8.3176 86.5108 12.4085C81.94 16.4495 79.6546 21.3635 79.6546 27.1506C79.6546 32.9377 81.94 37.8767 86.5108 41.9675C91.0817 46.0584 96.6001 48.1038 103.066 48.1038H116.862V39.498H118.033V49.1515H103.066C99.7773 49.1515 96.6279 48.6027 93.6179 47.5052C90.6078 46.3577 87.9601 44.7613 85.6747 42.7159C80.881 38.4254 78.4841 33.237 78.4841 27.1506C78.4841 21.0642 80.881 15.8757 85.6747 11.5853C87.9601 9.53987 90.6078 7.96838 93.6179 6.87083C96.6279 5.72339 99.7773 5.14967 103.066 5.14967H118.033V14.8031H116.862C116.026 14.8031 114.632 14.8031 112.681 14.8031C110.786 14.7532 109.393 14.7283 108.501 14.7283C107.665 14.7283 106.606 14.7532 105.324 14.8031C104.097 14.853 103.01 14.9279 102.063 15.0276C97.8264 15.5265 94.6491 16.8985 92.5309 19.1434C90.8029 20.9893 89.7439 23.3092 89.3537 26.1029C89.1864 27.3003 89.2422 28.3978 89.5209 29.3956C89.6324 29.3956 89.7439 29.3956 89.8553 29.3956C90.4685 29.3956 90.998 29.5951 91.444 29.9942C91.8899 30.3934 92.1129 30.8922 92.1129 31.4909C92.1129 32.0397 91.8899 32.5136 91.444 32.9127C90.998 33.3118 90.4406 33.5114 89.7717 33.5114C89.1586 33.5114 88.629 33.3118 88.1831 32.9127C87.7372 32.5136 87.5142 32.0397 87.5142 31.4909C87.5142 30.7426 87.8208 30.1689 88.4339 29.7697C88.1552 28.6223 88.0995 27.3501 88.2667 25.9533C88.6569 22.9599 89.7996 20.4655 91.6948 18.47C94.036 16.0254 97.4362 14.5537 101.896 14.0548C103.679 13.8552 108.668 13.7555 116.862 13.7555Z" fill="url(#paint2_linear_13_382)"/>
<path d="M165.157 23.7831C165.157 23.7831 165.157 26.4023 165.157 31.6406C165.157 36.829 163.122 41.2441 159.053 44.886C154.984 48.5279 150.051 50.3488 144.254 50.3488C138.512 50.3488 133.579 48.5279 129.454 44.886C125.385 41.2441 123.351 36.829 123.351 31.6406V23.7831C123.351 18.5947 125.385 14.1795 129.454 10.5376C133.579 6.84588 138.512 5 144.254 5C150.051 5 154.984 6.84588 159.053 10.5376C163.122 14.1795 165.157 18.5947 165.157 23.7831ZM163.986 23.7831C163.986 18.894 162.063 14.7283 158.217 11.286C154.371 7.84366 149.716 6.12249 144.254 6.12249C138.847 6.12249 134.192 7.84366 130.29 11.286C126.444 14.7283 124.521 18.894 124.521 23.7831V31.6406C124.521 36.5297 126.444 40.6954 130.29 44.1377C134.192 47.58 138.847 49.3012 144.254 49.3012C149.716 49.3012 154.371 47.58 158.217 44.1377C162.063 40.6954 163.986 36.5297 163.986 31.6406V23.7831ZM141.996 40.845C139.711 40.396 137.815 39.3484 136.31 37.7021C134.805 36.0557 134.053 34.16 134.053 32.0147V23.4089C134.053 20.9145 135.056 18.7693 137.063 16.9733C139.07 15.1773 141.467 14.2793 144.254 14.2793C146.65 14.2793 148.769 14.9528 150.608 16.2998C152.503 17.6468 153.702 19.343 154.203 21.3884C154.761 21.4383 155.207 21.6628 155.541 22.0619C155.931 22.4611 156.127 22.91 156.127 23.4089C156.127 23.9577 155.904 24.4566 155.458 24.9056C155.012 25.3047 154.454 25.5043 153.785 25.5043C153.172 25.5043 152.643 25.3047 152.197 24.9056C151.751 24.4566 151.528 23.9577 151.528 23.4089C151.528 22.4611 152.03 21.8125 153.033 21.4633C152.531 19.7172 151.472 18.2704 149.856 17.123C148.239 15.9755 146.372 15.4018 144.254 15.4018C141.801 15.4018 139.683 16.2 137.899 17.7965C136.171 19.343 135.307 21.2138 135.307 23.4089V32.0147C135.307 33.8606 135.948 35.507 137.23 36.9537C138.512 38.4005 140.157 39.3484 142.163 39.7974C142.553 38.9493 143.25 38.5252 144.254 38.5252C144.923 38.5252 145.48 38.7248 145.926 39.1239C146.372 39.523 146.595 40.0219 146.595 40.6205C146.595 41.1693 146.372 41.6433 145.926 42.0424C145.48 42.4415 144.923 42.641 144.254 42.641C143.696 42.641 143.195 42.4664 142.749 42.1172C142.358 41.768 142.108 41.3439 141.996 40.845Z" fill="url(#paint3_linear_13_382)"/>
<path d="M183.294 32.9127L192.659 48.1038C192.659 48.1038 196.644 48.1038 204.615 48.1038C203.11 45.809 199.459 40.3462 193.662 31.7154L194.164 30.8922C194.164 30.8922 194.498 30.8922 195.167 30.8922C198.957 30.8922 202.19 29.6949 204.866 27.3003C207.597 24.9056 208.963 22.0121 208.963 18.6196C208.963 15.1773 207.597 12.2588 204.866 9.86415C202.19 7.46949 198.957 6.27216 195.167 6.27216H171.756V49.1515H170.585V5.14967H195.167C199.292 5.14967 202.804 6.47172 205.702 9.11582C208.656 11.71 210.134 14.878 210.134 18.6196C210.134 22.2615 208.684 25.4045 205.786 28.0486C202.887 30.6428 199.375 31.9648 195.251 32.0147L206.789 49.1515H191.906L182.291 33.4366C182.123 33.4865 181.928 33.5114 181.705 33.5114C181.092 33.5114 180.563 33.3118 180.117 32.9127C179.671 32.5136 179.448 32.0397 179.448 31.4909C179.448 30.8922 179.671 30.3934 180.117 29.9942C180.563 29.5951 181.092 29.3956 181.705 29.3956C182.374 29.3956 182.932 29.5951 183.378 29.9942C183.824 30.3934 184.047 30.8922 184.047 31.4909C184.047 32.0397 183.796 32.5136 183.294 32.9127ZM198.01 15.1773C199.069 16.1252 199.598 17.2726 199.598 18.6196C199.598 19.9167 199.069 21.0392 198.01 21.9871C196.951 22.935 195.669 23.4089 194.164 23.4089H181.12V13.7555H194.164C195.669 13.7555 196.951 14.2294 198.01 15.1773ZM197.174 21.2388C198.01 20.4904 198.428 19.6174 198.428 18.6196C198.428 17.572 198.01 16.674 197.174 15.9256C196.338 15.1773 195.334 14.8031 194.164 14.8031H182.291C182.291 14.8031 182.291 17.3225 182.291 22.3613H194.164C195.334 22.3613 196.338 21.9871 197.174 21.2388Z" fill="url(#paint4_linear_13_382)"/>
<path d="M228.411 30.8922H240.033C243.824 30.8922 247.057 29.6949 249.732 27.3003C252.464 24.9056 253.829 22.0121 253.829 18.6196C253.829 15.1773 252.464 12.2588 249.732 9.86415C247.057 7.46949 243.824 6.27216 240.033 6.27216H216.622V48.1038H226.237V49.1515H215.451V5.14967H240.033C244.158 5.14967 247.67 6.47172 250.569 9.11582C253.523 11.71 255 14.878 255 18.6196C255 22.3114 253.523 25.4793 250.569 28.1234C247.67 30.7176 244.158 32.0147 240.033 32.0147H228.411C228.133 33.0125 227.408 33.5114 226.237 33.5114C225.568 33.5114 225.011 33.3118 224.565 32.9127C224.119 32.5136 223.896 32.0397 223.896 31.4909C223.896 30.8922 224.119 30.3934 224.565 29.9942C225.011 29.5951 225.568 29.3956 226.237 29.3956C227.408 29.3956 228.133 29.8945 228.411 30.8922ZM242.876 15.1773C243.935 16.1252 244.465 17.2726 244.465 18.6196C244.465 19.9167 243.935 21.0392 242.876 21.9871C241.817 22.935 240.535 23.4089 239.03 23.4089H225.987V13.7555H239.03C240.535 13.7555 241.817 14.2294 242.876 15.1773ZM242.04 21.2388C242.876 20.4904 243.294 19.6174 243.294 18.6196C243.294 17.572 242.876 16.674 242.04 15.9256C241.204 15.1773 240.201 14.8031 239.03 14.8031H227.157V22.3613H239.03C240.201 22.3613 241.204 21.9871 242.04 21.2388Z" fill="url(#paint5_linear_13_382)"/>
<path d="M17.3746 40.5457C17.0959 41.5934 16.3713 42.1172 15.2007 42.1172C14.5318 42.1172 13.9744 41.9176 13.5285 41.5185C13.0825 41.1194 12.8596 40.6455 12.8596 40.0967C12.8596 39.498 13.0825 38.9992 13.5285 38.6C13.9744 38.2009 14.5318 38.0014 15.2007 38.0014C16.3713 38.0014 17.0959 38.5003 17.3746 39.498H44.5486V49.1515H5V5.14967H15.786V6.27216H6.17057C6.17057 6.27216 6.17057 20.2161 6.17057 48.1038C6.17057 48.1038 18.5731 48.1038 43.378 48.1038C43.378 48.1038 43.378 45.5845 43.378 40.5457H17.3746Z" stroke="url(#paint6_linear_13_382)" stroke-width="2" mask="url(#path-1-outside-1_13_382)"/>
<path d="M53.211 32.0147V26.1778H73.4451V32.0147H53.211Z" stroke="url(#paint7_linear_13_382)" stroke-width="2" mask="url(#path-1-outside-1_13_382)"/>
<path d="M116.862 13.7555V6.27216H103.066C96.6001 6.27216 91.0817 8.3176 86.5108 12.4085C81.94 16.4495 79.6546 21.3635 79.6546 27.1506C79.6546 32.9377 81.94 37.8767 86.5108 41.9675C91.0817 46.0584 96.6001 48.1038 103.066 48.1038H116.862V39.498H118.033V49.1515H103.066C99.7773 49.1515 96.6279 48.6027 93.6179 47.5052C90.6078 46.3577 87.9601 44.7613 85.6747 42.7159C80.881 38.4254 78.4841 33.237 78.4841 27.1506C78.4841 21.0642 80.881 15.8757 85.6747 11.5853C87.9601 9.53987 90.6078 7.96838 93.6179 6.87083C96.6279 5.72339 99.7773 5.14967 103.066 5.14967H118.033V14.8031H116.862C116.026 14.8031 114.632 14.8031 112.681 14.8031C110.786 14.7532 109.393 14.7283 108.501 14.7283C107.665 14.7283 106.606 14.7532 105.324 14.8031C104.097 14.853 103.01 14.9279 102.063 15.0276C97.8264 15.5265 94.6491 16.8985 92.5309 19.1434C90.8029 20.9893 89.7439 23.3092 89.3537 26.1029C89.1864 27.3003 89.2422 28.3978 89.5209 29.3956C89.6324 29.3956 89.7439 29.3956 89.8553 29.3956C90.4685 29.3956 90.998 29.5951 91.444 29.9942C91.8899 30.3934 92.1129 30.8922 92.1129 31.4909C92.1129 32.0397 91.8899 32.5136 91.444 32.9127C90.998 33.3118 90.4406 33.5114 89.7717 33.5114C89.1586 33.5114 88.629 33.3118 88.1831 32.9127C87.7372 32.5136 87.5142 32.0397 87.5142 31.4909C87.5142 30.7426 87.8208 30.1689 88.4339 29.7697C88.1552 28.6223 88.0995 27.3501 88.2667 25.9533C88.6569 22.9599 89.7996 20.4655 91.6948 18.47C94.036 16.0254 97.4362 14.5537 101.896 14.0548C103.679 13.8552 108.668 13.7555 116.862 13.7555Z" stroke="url(#paint8_linear_13_382)" stroke-width="2" mask="url(#path-1-outside-1_13_382)"/>
<path d="M165.157 23.7831C165.157 23.7831 165.157 26.4023 165.157 31.6406C165.157 36.829 163.122 41.2441 159.053 44.886C154.984 48.5279 150.051 50.3488 144.254 50.3488C138.512 50.3488 133.579 48.5279 129.454 44.886C125.385 41.2441 123.351 36.829 123.351 31.6406V23.7831C123.351 18.5947 125.385 14.1795 129.454 10.5376C133.579 6.84588 138.512 5 144.254 5C150.051 5 154.984 6.84588 159.053 10.5376C163.122 14.1795 165.157 18.5947 165.157 23.7831ZM163.986 23.7831C163.986 18.894 162.063 14.7283 158.217 11.286C154.371 7.84366 149.716 6.12249 144.254 6.12249C138.847 6.12249 134.192 7.84366 130.29 11.286C126.444 14.7283 124.521 18.894 124.521 23.7831V31.6406C124.521 36.5297 126.444 40.6954 130.29 44.1377C134.192 47.58 138.847 49.3012 144.254 49.3012C149.716 49.3012 154.371 47.58 158.217 44.1377C162.063 40.6954 163.986 36.5297 163.986 31.6406V23.7831ZM141.996 40.845C139.711 40.396 137.815 39.3484 136.31 37.7021C134.805 36.0557 134.053 34.16 134.053 32.0147V23.4089C134.053 20.9145 135.056 18.7693 137.063 16.9733C139.07 15.1773 141.467 14.2793 144.254 14.2793C146.65 14.2793 148.769 14.9528 150.608 16.2998C152.503 17.6468 153.702 19.343 154.203 21.3884C154.761 21.4383 155.207 21.6628 155.541 22.0619C155.931 22.4611 156.127 22.91 156.127 23.4089C156.127 23.9577 155.904 24.4566 155.458 24.9056C155.012 25.3047 154.454 25.5043 153.785 25.5043C153.172 25.5043 152.643 25.3047 152.197 24.9056C151.751 24.4566 151.528 23.9577 151.528 23.4089C151.528 22.4611 152.03 21.8125 153.033 21.4633C152.531 19.7172 151.472 18.2704 149.856 17.123C148.239 15.9755 146.372 15.4018 144.254 15.4018C141.801 15.4018 139.683 16.2 137.899 17.7965C136.171 19.343 135.307 21.2138 135.307 23.4089V32.0147C135.307 33.8606 135.948 35.507 137.23 36.9537C138.512 38.4005 140.157 39.3484 142.163 39.7974C142.553 38.9493 143.25 38.5252 144.254 38.5252C144.923 38.5252 145.48 38.7248 145.926 39.1239C146.372 39.523 146.595 40.0219 146.595 40.6205C146.595 41.1693 146.372 41.6433 145.926 42.0424C145.48 42.4415 144.923 42.641 144.254 42.641C143.696 42.641 143.195 42.4664 142.749 42.1172C142.358 41.768 142.108 41.3439 141.996 40.845Z" stroke="url(#paint9_linear_13_382)" stroke-width="2" mask="url(#path-1-outside-1_13_382)"/>
<path d="M183.294 32.9127L192.659 48.1038C192.659 48.1038 196.644 48.1038 204.615 48.1038C203.11 45.809 199.459 40.3462 193.662 31.7154L194.164 30.8922C194.164 30.8922 194.498 30.8922 195.167 30.8922C198.957 30.8922 202.19 29.6949 204.866 27.3003C207.597 24.9056 208.963 22.0121 208.963 18.6196C208.963 15.1773 207.597 12.2588 204.866 9.86415C202.19 7.46949 198.957 6.27216 195.167 6.27216H171.756V49.1515H170.585V5.14967H195.167C199.292 5.14967 202.804 6.47172 205.702 9.11582C208.656 11.71 210.134 14.878 210.134 18.6196C210.134 22.2615 208.684 25.4045 205.786 28.0486C202.887 30.6428 199.375 31.9648 195.251 32.0147L206.789 49.1515H191.906L182.291 33.4366C182.123 33.4865 181.928 33.5114 181.705 33.5114C181.092 33.5114 180.563 33.3118 180.117 32.9127C179.671 32.5136 179.448 32.0397 179.448 31.4909C179.448 30.8922 179.671 30.3934 180.117 29.9942C180.563 29.5951 181.092 29.3956 181.705 29.3956C182.374 29.3956 182.932 29.5951 183.378 29.9942C183.824 30.3934 184.047 30.8922 184.047 31.4909C184.047 32.0397 183.796 32.5136 183.294 32.9127ZM198.01 15.1773C199.069 16.1252 199.598 17.2726 199.598 18.6196C199.598 19.9167 199.069 21.0392 198.01 21.9871C196.951 22.935 195.669 23.4089 194.164 23.4089H181.12V13.7555H194.164C195.669 13.7555 196.951 14.2294 198.01 15.1773ZM197.174 21.2388C198.01 20.4904 198.428 19.6174 198.428 18.6196C198.428 17.572 198.01 16.674 197.174 15.9256C196.338 15.1773 195.334 14.8031 194.164 14.8031H182.291C182.291 14.8031 182.291 17.3225 182.291 22.3613H194.164C195.334 22.3613 196.338 21.9871 197.174 21.2388Z" stroke="url(#paint10_linear_13_382)" stroke-width="2" mask="url(#path-1-outside-1_13_382)"/>
<path d="M228.411 30.8922H240.033C243.824 30.8922 247.057 29.6949 249.732 27.3003C252.464 24.9056 253.829 22.0121 253.829 18.6196C253.829 15.1773 252.464 12.2588 249.732 9.86415C247.057 7.46949 243.824 6.27216 240.033 6.27216H216.622V48.1038H226.237V49.1515H215.451V5.14967H240.033C244.158 5.14967 247.67 6.47172 250.569 9.11582C253.523 11.71 255 14.878 255 18.6196C255 22.3114 253.523 25.4793 250.569 28.1234C247.67 30.7176 244.158 32.0147 240.033 32.0147H228.411C228.133 33.0125 227.408 33.5114 226.237 33.5114C225.568 33.5114 225.011 33.3118 224.565 32.9127C224.119 32.5136 223.896 32.0397 223.896 31.4909C223.896 30.8922 224.119 30.3934 224.565 29.9942C225.011 29.5951 225.568 29.3956 226.237 29.3956C227.408 29.3956 228.133 29.8945 228.411 30.8922ZM242.876 15.1773C243.935 16.1252 244.465 17.2726 244.465 18.6196C244.465 19.9167 243.935 21.0392 242.876 21.9871C241.817 22.935 240.535 23.4089 239.03 23.4089H225.987V13.7555H239.03C240.535 13.7555 241.817 14.2294 242.876 15.1773ZM242.04 21.2388C242.876 20.4904 243.294 19.6174 243.294 18.6196C243.294 17.572 242.876 16.674 242.04 15.9256C241.204 15.1773 240.201 14.8031 239.03 14.8031H227.157V22.3613H239.03C240.201 22.3613 241.204 21.9871 242.04 21.2388Z" stroke="url(#paint11_linear_13_382)" stroke-width="2" mask="url(#path-1-outside-1_13_382)"/>
</g>
<mask id="path-2-outside-2_13_382" maskUnits="userSpaceOnUse" x="4" y="4" width="252" height="48" fill="black">
<rect fill="white" x="4" y="4" width="252" height="48"/>
<path d="M17.3746 40.5457C17.0959 41.5934 16.3713 42.1172 15.2007 42.1172C14.5318 42.1172 13.9744 41.9176 13.5285 41.5185C13.0825 41.1194 12.8596 40.6455 12.8596 40.0967C12.8596 39.498 13.0825 38.9992 13.5285 38.6C13.9744 38.2009 14.5318 38.0014 15.2007 38.0014C16.3713 38.0014 17.0959 38.5003 17.3746 39.498H44.5486V49.1515H5V5.14967H15.786V6.27216H6.17057C6.17057 6.27216 6.17057 20.2161 6.17057 48.1038C6.17057 48.1038 18.5731 48.1038 43.378 48.1038C43.378 48.1038 43.378 45.5845 43.378 40.5457H17.3746Z"/>
<path d="M53.211 32.0147V26.1778H73.4451V32.0147H53.211Z"/>
<path d="M116.862 13.7555V6.27216H103.066C96.6001 6.27216 91.0817 8.3176 86.5108 12.4085C81.94 16.4495 79.6546 21.3635 79.6546 27.1506C79.6546 32.9377 81.94 37.8767 86.5108 41.9675C91.0817 46.0584 96.6001 48.1038 103.066 48.1038H116.862V39.498H118.033V49.1515H103.066C99.7773 49.1515 96.6279 48.6027 93.6179 47.5052C90.6078 46.3577 87.9601 44.7613 85.6747 42.7159C80.881 38.4254 78.4841 33.237 78.4841 27.1506C78.4841 21.0642 80.881 15.8757 85.6747 11.5853C87.9601 9.53987 90.6078 7.96838 93.6179 6.87083C96.6279 5.72339 99.7773 5.14967 103.066 5.14967H118.033V14.8031H116.862C116.026 14.8031 114.632 14.8031 112.681 14.8031C110.786 14.7532 109.393 14.7283 108.501 14.7283C107.665 14.7283 106.606 14.7532 105.324 14.8031C104.097 14.853 103.01 14.9279 102.063 15.0276C97.8264 15.5265 94.6491 16.8985 92.5309 19.1434C90.8029 20.9893 89.7439 23.3092 89.3537 26.1029C89.1864 27.3003 89.2422 28.3978 89.5209 29.3956C89.6324 29.3956 89.7439 29.3956 89.8553 29.3956C90.4685 29.3956 90.998 29.5951 91.444 29.9942C91.8899 30.3934 92.1129 30.8922 92.1129 31.4909C92.1129 32.0397 91.8899 32.5136 91.444 32.9127C90.998 33.3118 90.4406 33.5114 89.7717 33.5114C89.1586 33.5114 88.629 33.3118 88.1831 32.9127C87.7372 32.5136 87.5142 32.0397 87.5142 31.4909C87.5142 30.7426 87.8208 30.1689 88.4339 29.7697C88.1552 28.6223 88.0995 27.3501 88.2667 25.9533C88.6569 22.9599 89.7996 20.4655 91.6948 18.47C94.036 16.0254 97.4362 14.5537 101.896 14.0548C103.679 13.8552 108.668 13.7555 116.862 13.7555Z"/>
<path d="M165.157 23.7831C165.157 23.7831 165.157 26.4023 165.157 31.6406C165.157 36.829 163.122 41.2441 159.053 44.886C154.984 48.5279 150.051 50.3488 144.254 50.3488C138.512 50.3488 133.579 48.5279 129.454 44.886C125.385 41.2441 123.351 36.829 123.351 31.6406V23.7831C123.351 18.5947 125.385 14.1795 129.454 10.5376C133.579 6.84588 138.512 5 144.254 5C150.051 5 154.984 6.84588 159.053 10.5376C163.122 14.1795 165.157 18.5947 165.157 23.7831ZM163.986 23.7831C163.986 18.894 162.063 14.7283 158.217 11.286C154.371 7.84366 149.716 6.12249 144.254 6.12249C138.847 6.12249 134.192 7.84366 130.29 11.286C126.444 14.7283 124.521 18.894 124.521 23.7831V31.6406C124.521 36.5297 126.444 40.6954 130.29 44.1377C134.192 47.58 138.847 49.3012 144.254 49.3012C149.716 49.3012 154.371 47.58 158.217 44.1377C162.063 40.6954 163.986 36.5297 163.986 31.6406V23.7831ZM141.996 40.845C139.711 40.396 137.815 39.3484 136.31 37.7021C134.805 36.0557 134.053 34.16 134.053 32.0147V23.4089C134.053 20.9145 135.056 18.7693 137.063 16.9733C139.07 15.1773 141.467 14.2793 144.254 14.2793C146.65 14.2793 148.769 14.9528 150.608 16.2998C152.503 17.6468 153.702 19.343 154.203 21.3884C154.761 21.4383 155.207 21.6628 155.541 22.0619C155.931 22.4611 156.127 22.91 156.127 23.4089C156.127 23.9577 155.904 24.4566 155.458 24.9056C155.012 25.3047 154.454 25.5043 153.785 25.5043C153.172 25.5043 152.643 25.3047 152.197 24.9056C151.751 24.4566 151.528 23.9577 151.528 23.4089C151.528 22.4611 152.03 21.8125 153.033 21.4633C152.531 19.7172 151.472 18.2704 149.856 17.123C148.239 15.9755 146.372 15.4018 144.254 15.4018C141.801 15.4018 139.683 16.2 137.899 17.7965C136.171 19.343 135.307 21.2138 135.307 23.4089V32.0147C135.307 33.8606 135.948 35.507 137.23 36.9537C138.512 38.4005 140.157 39.3484 142.163 39.7974C142.553 38.9493 143.25 38.5252 144.254 38.5252C144.923 38.5252 145.48 38.7248 145.926 39.1239C146.372 39.523 146.595 40.0219 146.595 40.6205C146.595 41.1693 146.372 41.6433 145.926 42.0424C145.48 42.4415 144.923 42.641 144.254 42.641C143.696 42.641 143.195 42.4664 142.749 42.1172C142.358 41.768 142.108 41.3439 141.996 40.845Z"/>
<path d="M183.294 32.9127L192.659 48.1038C192.659 48.1038 196.644 48.1038 204.615 48.1038C203.11 45.809 199.459 40.3462 193.662 31.7154L194.164 30.8922C194.164 30.8922 194.498 30.8922 195.167 30.8922C198.957 30.8922 202.19 29.6949 204.866 27.3003C207.597 24.9056 208.963 22.0121 208.963 18.6196C208.963 15.1773 207.597 12.2588 204.866 9.86415C202.19 7.46949 198.957 6.27216 195.167 6.27216H171.756V49.1515H170.585V5.14967H195.167C199.292 5.14967 202.804 6.47172 205.702 9.11582C208.656 11.71 210.134 14.878 210.134 18.6196C210.134 22.2615 208.684 25.4045 205.786 28.0486C202.887 30.6428 199.375 31.9648 195.251 32.0147L206.789 49.1515H191.906L182.291 33.4366C182.123 33.4865 181.928 33.5114 181.705 33.5114C181.092 33.5114 180.563 33.3118 180.117 32.9127C179.671 32.5136 179.448 32.0397 179.448 31.4909C179.448 30.8922 179.671 30.3934 180.117 29.9942C180.563 29.5951 181.092 29.3956 181.705 29.3956C182.374 29.3956 182.932 29.5951 183.378 29.9942C183.824 30.3934 184.047 30.8922 184.047 31.4909C184.047 32.0397 183.796 32.5136 183.294 32.9127ZM198.01 15.1773C199.069 16.1252 199.598 17.2726 199.598 18.6196C199.598 19.9167 199.069 21.0392 198.01 21.9871C196.951 22.935 195.669 23.4089 194.164 23.4089H181.12V13.7555H194.164C195.669 13.7555 196.951 14.2294 198.01 15.1773ZM197.174 21.2388C198.01 20.4904 198.428 19.6174 198.428 18.6196C198.428 17.572 198.01 16.674 197.174 15.9256C196.338 15.1773 195.334 14.8031 194.164 14.8031H182.291C182.291 14.8031 182.291 17.3225 182.291 22.3613H194.164C195.334 22.3613 196.338 21.9871 197.174 21.2388Z"/>
<path d="M228.411 30.8922H240.033C243.824 30.8922 247.057 29.6949 249.732 27.3003C252.464 24.9056 253.829 22.0121 253.829 18.6196C253.829 15.1773 252.464 12.2588 249.732 9.86415C247.057 7.46949 243.824 6.27216 240.033 6.27216H216.622V48.1038H226.237V49.1515H215.451V5.14967H240.033C244.158 5.14967 247.67 6.47172 250.569 9.11582C253.523 11.71 255 14.878 255 18.6196C255 22.3114 253.523 25.4793 250.569 28.1234C247.67 30.7176 244.158 32.0147 240.033 32.0147H228.411C228.133 33.0125 227.408 33.5114 226.237 33.5114C225.568 33.5114 225.011 33.3118 224.565 32.9127C224.119 32.5136 223.896 32.0397 223.896 31.4909C223.896 30.8922 224.119 30.3934 224.565 29.9942C225.011 29.5951 225.568 29.3956 226.237 29.3956C227.408 29.3956 228.133 29.8945 228.411 30.8922ZM242.876 15.1773C243.935 16.1252 244.465 17.2726 244.465 18.6196C244.465 19.9167 243.935 21.0392 242.876 21.9871C241.817 22.935 240.535 23.4089 239.03 23.4089H225.987V13.7555H239.03C240.535 13.7555 241.817 14.2294 242.876 15.1773ZM242.04 21.2388C242.876 20.4904 243.294 19.6174 243.294 18.6196C243.294 17.572 242.876 16.674 242.04 15.9256C241.204 15.1773 240.201 14.8031 239.03 14.8031H227.157V22.3613H239.03C240.201 22.3613 241.204 21.9871 242.04 21.2388Z"/>
</mask>
<path d="M17.3746 40.5457C17.0959 41.5934 16.3713 42.1172 15.2007 42.1172C14.5318 42.1172 13.9744 41.9176 13.5285 41.5185C13.0825 41.1194 12.8596 40.6455 12.8596 40.0967C12.8596 39.498 13.0825 38.9992 13.5285 38.6C13.9744 38.2009 14.5318 38.0014 15.2007 38.0014C16.3713 38.0014 17.0959 38.5003 17.3746 39.498H44.5486V49.1515H5V5.14967H15.786V6.27216H6.17057C6.17057 6.27216 6.17057 20.2161 6.17057 48.1038C6.17057 48.1038 18.5731 48.1038 43.378 48.1038C43.378 48.1038 43.378 45.5845 43.378 40.5457H17.3746Z" stroke="url(#paint12_linear_13_382)" stroke-width="2" mask="url(#path-2-outside-2_13_382)"/>
<path d="M53.211 32.0147V26.1778H73.4451V32.0147H53.211Z" stroke="url(#paint13_linear_13_382)" stroke-width="2" mask="url(#path-2-outside-2_13_382)"/>
<path d="M116.862 13.7555V6.27216H103.066C96.6001 6.27216 91.0817 8.3176 86.5108 12.4085C81.94 16.4495 79.6546 21.3635 79.6546 27.1506C79.6546 32.9377 81.94 37.8767 86.5108 41.9675C91.0817 46.0584 96.6001 48.1038 103.066 48.1038H116.862V39.498H118.033V49.1515H103.066C99.7773 49.1515 96.6279 48.6027 93.6179 47.5052C90.6078 46.3577 87.9601 44.7613 85.6747 42.7159C80.881 38.4254 78.4841 33.237 78.4841 27.1506C78.4841 21.0642 80.881 15.8757 85.6747 11.5853C87.9601 9.53987 90.6078 7.96838 93.6179 6.87083C96.6279 5.72339 99.7773 5.14967 103.066 5.14967H118.033V14.8031H116.862C116.026 14.8031 114.632 14.8031 112.681 14.8031C110.786 14.7532 109.393 14.7283 108.501 14.7283C107.665 14.7283 106.606 14.7532 105.324 14.8031C104.097 14.853 103.01 14.9279 102.063 15.0276C97.8264 15.5265 94.6491 16.8985 92.5309 19.1434C90.8029 20.9893 89.7439 23.3092 89.3537 26.1029C89.1864 27.3003 89.2422 28.3978 89.5209 29.3956C89.6324 29.3956 89.7439 29.3956 89.8553 29.3956C90.4685 29.3956 90.998 29.5951 91.444 29.9942C91.8899 30.3934 92.1129 30.8922 92.1129 31.4909C92.1129 32.0397 91.8899 32.5136 91.444 32.9127C90.998 33.3118 90.4406 33.5114 89.7717 33.5114C89.1586 33.5114 88.629 33.3118 88.1831 32.9127C87.7372 32.5136 87.5142 32.0397 87.5142 31.4909C87.5142 30.7426 87.8208 30.1689 88.4339 29.7697C88.1552 28.6223 88.0995 27.3501 88.2667 25.9533C88.6569 22.9599 89.7996 20.4655 91.6948 18.47C94.036 16.0254 97.4362 14.5537 101.896 14.0548C103.679 13.8552 108.668 13.7555 116.862 13.7555Z" stroke="url(#paint14_linear_13_382)" stroke-width="2" mask="url(#path-2-outside-2_13_382)"/>
<path d="M165.157 23.7831C165.157 23.7831 165.157 26.4023 165.157 31.6406C165.157 36.829 163.122 41.2441 159.053 44.886C154.984 48.5279 150.051 50.3488 144.254 50.3488C138.512 50.3488 133.579 48.5279 129.454 44.886C125.385 41.2441 123.351 36.829 123.351 31.6406V23.7831C123.351 18.5947 125.385 14.1795 129.454 10.5376C133.579 6.84588 138.512 5 144.254 5C150.051 5 154.984 6.84588 159.053 10.5376C163.122 14.1795 165.157 18.5947 165.157 23.7831ZM163.986 23.7831C163.986 18.894 162.063 14.7283 158.217 11.286C154.371 7.84366 149.716 6.12249 144.254 6.12249C138.847 6.12249 134.192 7.84366 130.29 11.286C126.444 14.7283 124.521 18.894 124.521 23.7831V31.6406C124.521 36.5297 126.444 40.6954 130.29 44.1377C134.192 47.58 138.847 49.3012 144.254 49.3012C149.716 49.3012 154.371 47.58 158.217 44.1377C162.063 40.6954 163.986 36.5297 163.986 31.6406V23.7831ZM141.996 40.845C139.711 40.396 137.815 39.3484 136.31 37.7021C134.805 36.0557 134.053 34.16 134.053 32.0147V23.4089C134.053 20.9145 135.056 18.7693 137.063 16.9733C139.07 15.1773 141.467 14.2793 144.254 14.2793C146.65 14.2793 148.769 14.9528 150.608 16.2998C152.503 17.6468 153.702 19.343 154.203 21.3884C154.761 21.4383 155.207 21.6628 155.541 22.0619C155.931 22.4611 156.127 22.91 156.127 23.4089C156.127 23.9577 155.904 24.4566 155.458 24.9056C155.012 25.3047 154.454 25.5043 153.785 25.5043C153.172 25.5043 152.643 25.3047 152.197 24.9056C151.751 24.4566 151.528 23.9577 151.528 23.4089C151.528 22.4611 152.03 21.8125 153.033 21.4633C152.531 19.7172 151.472 18.2704 149.856 17.123C148.239 15.9755 146.372 15.4018 144.254 15.4018C141.801 15.4018 139.683 16.2 137.899 17.7965C136.171 19.343 135.307 21.2138 135.307 23.4089V32.0147C135.307 33.8606 135.948 35.507 137.23 36.9537C138.512 38.4005 140.157 39.3484 142.163 39.7974C142.553 38.9493 143.25 38.5252 144.254 38.5252C144.923 38.5252 145.48 38.7248 145.926 39.1239C146.372 39.523 146.595 40.0219 146.595 40.6205C146.595 41.1693 146.372 41.6433 145.926 42.0424C145.48 42.4415 144.923 42.641 144.254 42.641C143.696 42.641 143.195 42.4664 142.749 42.1172C142.358 41.768 142.108 41.3439 141.996 40.845Z" stroke="url(#paint15_linear_13_382)" stroke-width="2" mask="url(#path-2-outside-2_13_382)"/>
<path d="M183.294 32.9127L192.659 48.1038C192.659 48.1038 196.644 48.1038 204.615 48.1038C203.11 45.809 199.459 40.3462 193.662 31.7154L194.164 30.8922C194.164 30.8922 194.498 30.8922 195.167 30.8922C198.957 30.8922 202.19 29.6949 204.866 27.3003C207.597 24.9056 208.963 22.0121 208.963 18.6196C208.963 15.1773 207.597 12.2588 204.866 9.86415C202.19 7.46949 198.957 6.27216 195.167 6.27216H171.756V49.1515H170.585V5.14967H195.167C199.292 5.14967 202.804 6.47172 205.702 9.11582C208.656 11.71 210.134 14.878 210.134 18.6196C210.134 22.2615 208.684 25.4045 205.786 28.0486C202.887 30.6428 199.375 31.9648 195.251 32.0147L206.789 49.1515H191.906L182.291 33.4366C182.123 33.4865 181.928 33.5114 181.705 33.5114C181.092 33.5114 180.563 33.3118 180.117 32.9127C179.671 32.5136 179.448 32.0397 179.448 31.4909C179.448 30.8922 179.671 30.3934 180.117 29.9942C180.563 29.5951 181.092 29.3956 181.705 29.3956C182.374 29.3956 182.932 29.5951 183.378 29.9942C183.824 30.3934 184.047 30.8922 184.047 31.4909C184.047 32.0397 183.796 32.5136 183.294 32.9127ZM198.01 15.1773C199.069 16.1252 199.598 17.2726 199.598 18.6196C199.598 19.9167 199.069 21.0392 198.01 21.9871C196.951 22.935 195.669 23.4089 194.164 23.4089H181.12V13.7555H194.164C195.669 13.7555 196.951 14.2294 198.01 15.1773ZM197.174 21.2388C198.01 20.4904 198.428 19.6174 198.428 18.6196C198.428 17.572 198.01 16.674 197.174 15.9256C196.338 15.1773 195.334 14.8031 194.164 14.8031H182.291C182.291 14.8031 182.291 17.3225 182.291 22.3613H194.164C195.334 22.3613 196.338 21.9871 197.174 21.2388Z" stroke="url(#paint16_linear_13_382)" stroke-width="2" mask="url(#path-2-outside-2_13_382)"/>
<path d="M228.411 30.8922H240.033C243.824 30.8922 247.057 29.6949 249.732 27.3003C252.464 24.9056 253.829 22.0121 253.829 18.6196C253.829 15.1773 252.464 12.2588 249.732 9.86415C247.057 7.46949 243.824 6.27216 240.033 6.27216H216.622V48.1038H226.237V49.1515H215.451V5.14967H240.033C244.158 5.14967 247.67 6.47172 250.569 9.11582C253.523 11.71 255 14.878 255 18.6196C255 22.3114 253.523 25.4793 250.569 28.1234C247.67 30.7176 244.158 32.0147 240.033 32.0147H228.411C228.133 33.0125 227.408 33.5114 226.237 33.5114C225.568 33.5114 225.011 33.3118 224.565 32.9127C224.119 32.5136 223.896 32.0397 223.896 31.4909C223.896 30.8922 224.119 30.3934 224.565 29.9942C225.011 29.5951 225.568 29.3956 226.237 29.3956C227.408 29.3956 228.133 29.8945 228.411 30.8922ZM242.876 15.1773C243.935 16.1252 244.465 17.2726 244.465 18.6196C244.465 19.9167 243.935 21.0392 242.876 21.9871C241.817 22.935 240.535 23.4089 239.03 23.4089H225.987V13.7555H239.03C240.535 13.7555 241.817 14.2294 242.876 15.1773ZM242.04 21.2388C242.876 20.4904 243.294 19.6174 243.294 18.6196C243.294 17.572 242.876 16.674 242.04 15.9256C241.204 15.1773 240.201 14.8031 239.03 14.8031H227.157V22.3613H239.03C240.201 22.3613 241.204 21.9871 242.04 21.2388Z" stroke="url(#paint17_linear_13_382)" stroke-width="2" mask="url(#path-2-outside-2_13_382)"/>
<defs>
<filter id="filter0_f_13_382" x="0" y="0" width="260" height="55.3488" filterUnits="userSpaceOnUse" color-interpolation-filters="sRGB">
<feFlood flood-opacity="0" result="BackgroundImageFix"/>
<feBlend mode="normal" in="SourceGraphic" in2="BackgroundImageFix" result="shape"/>
<feGaussianBlur stdDeviation="2" result="effect1_foregroundBlur_13_382"/>
</filter>
<linearGradient id="paint0_linear_13_382" x1="5" y1="24.5969" x2="255" y2="24.5969" gradientUnits="userSpaceOnUse">
<stop stop-color="#B488EB"/>
<stop offset="0.265625" stop-color="#08E2F0"/>
<stop offset="0.520833" stop-color="#08E2F0"/>
<stop offset="0.770833" stop-color="#CFFF04"/>
<stop offset="1" stop-color="#CFFF04"/>
</linearGradient>
<linearGradient id="paint1_linear_13_382" x1="5" y1="24.5969" x2="255" y2="24.5969" gradientUnits="userSpaceOnUse">
<stop stop-color="#B488EB"/>
<stop offset="0.265625" stop-color="#08E2F0"/>
<stop offset="0.520833" stop-color="#08E2F0"/>
<stop offset="0.770833" stop-color="#CFFF04"/>
<stop offset="1" stop-color="#CFFF04"/>
</linearGradient>
<linearGradient id="paint2_linear_13_382" x1="5" y1="24.5969" x2="255" y2="24.5969" gradientUnits="userSpaceOnUse">
<stop stop-color="#B488EB"/>
<stop offset="0.265625" stop-color="#08E2F0"/>
<stop offset="0.520833" stop-color="#08E2F0"/>
<stop offset="0.770833" stop-color="#CFFF04"/>
<stop offset="1" stop-color="#CFFF04"/>
</linearGradient>
<linearGradient id="paint3_linear_13_382" x1="5" y1="24.5969" x2="255" y2="24.5969" gradientUnits="userSpaceOnUse">
<stop stop-color="#B488EB"/>
<stop offset="0.265625" stop-color="#08E2F0"/>
<stop offset="0.520833" stop-color="#08E2F0"/>
<stop offset="0.770833" stop-color="#CFFF04"/>
<stop offset="1" stop-color="#CFFF04"/>
</linearGradient>
<linearGradient id="paint4_linear_13_382" x1="5" y1="24.5969" x2="255" y2="24.5969" gradientUnits="userSpaceOnUse">
<stop stop-color="#B488EB"/>
<stop offset="0.265625" stop-color="#08E2F0"/>
<stop offset="0.520833" stop-color="#08E2F0"/>
<stop offset="0.770833" stop-color="#CFFF04"/>
<stop offset="1" stop-color="#CFFF04"/>
</linearGradient>
<linearGradient id="paint5_linear_13_382" x1="5" y1="24.5969" x2="255" y2="24.5969" gradientUnits="userSpaceOnUse">
<stop stop-color="#B488EB"/>
<stop offset="0.265625" stop-color="#08E2F0"/>
<stop offset="0.520833" stop-color="#08E2F0"/>
<stop offset="0.770833" stop-color="#CFFF04"/>
<stop offset="1" stop-color="#CFFF04"/>
</linearGradient>
<linearGradient id="paint6_linear_13_382" x1="5" y1="24.5969" x2="255" y2="24.5969" gradientUnits="userSpaceOnUse">
<stop stop-color="#B488EB"/>
<stop offset="0.265625" stop-color="#08E2F0"/>
<stop offset="0.520833" stop-color="#08E2F0"/>
<stop offset="0.770833" stop-color="#CFFF04"/>
<stop offset="1" stop-color="#CFFF04"/>
</linearGradient>
<linearGradient id="paint7_linear_13_382" x1="5" y1="24.5969" x2="255" y2="24.5969" gradientUnits="userSpaceOnUse">
<stop stop-color="#B488EB"/>
<stop offset="0.265625" stop-color="#08E2F0"/>
<stop offset="0.520833" stop-color="#08E2F0"/>
<stop offset="0.770833" stop-color="#CFFF04"/>
<stop offset="1" stop-color="#CFFF04"/>
</linearGradient>
<linearGradient id="paint8_linear_13_382" x1="5" y1="24.5969" x2="255" y2="24.5969" gradientUnits="userSpaceOnUse">
<stop stop-color="#B488EB"/>
<stop offset="0.265625" stop-color="#08E2F0"/>
<stop offset="0.520833" stop-color="#08E2F0"/>
<stop offset="0.770833" stop-color="#CFFF04"/>
<stop offset="1" stop-color="#CFFF04"/>
</linearGradient>
<linearGradient id="paint9_linear_13_382" x1="5" y1="24.5969" x2="255" y2="24.5969" gradientUnits="userSpaceOnUse">
<stop stop-color="#B488EB"/>
<stop offset="0.265625" stop-color="#08E2F0"/>
<stop offset="0.520833" stop-color="#08E2F0"/>
<stop offset="0.770833" stop-color="#CFFF04"/>
<stop offset="1" stop-color="#CFFF04"/>
</linearGradient>
<linearGradient id="paint10_linear_13_382" x1="5" y1="24.5969" x2="255" y2="24.5969" gradientUnits="userSpaceOnUse">
<stop stop-color="#B488EB"/>
<stop offset="0.265625" stop-color="#08E2F0"/>
<stop offset="0.520833" stop-color="#08E2F0"/>
<stop offset="0.770833" stop-color="#CFFF04"/>
<stop offset="1" stop-color="#CFFF04"/>
</linearGradient>
<linearGradient id="paint11_linear_13_382" x1="5" y1="24.5969" x2="255" y2="24.5969" gradientUnits="userSpaceOnUse">
<stop stop-color="#B488EB"/>
<stop offset="0.265625" stop-color="#08E2F0"/>
<stop offset="0.520833" stop-color="#08E2F0"/>
<stop offset="0.770833" stop-color="#CFFF04"/>
<stop offset="1" stop-color="#CFFF04"/>
</linearGradient>
<linearGradient id="paint12_linear_13_382" x1="5" y1="24.5969" x2="255" y2="24.5969" gradientUnits="userSpaceOnUse">
<stop stop-color="#B488EB"/>
<stop offset="0.265625" stop-color="#08E2F0"/>
<stop offset="0.520833" stop-color="#08E2F0"/>
<stop offset="0.770833" stop-color="#CFFF04"/>
<stop offset="1" stop-color="#CFFF04"/>
</linearGradient>
<linearGradient id="paint13_linear_13_382" x1="5" y1="24.5969" x2="255" y2="24.5969" gradientUnits="userSpaceOnUse">
<stop stop-color="#B488EB"/>
<stop offset="0.265625" stop-color="#08E2F0"/>
<stop offset="0.520833" stop-color="#08E2F0"/>
<stop offset="0.770833" stop-color="#CFFF04"/>
<stop offset="1" stop-color="#CFFF04"/>
</linearGradient>
<linearGradient id="paint14_linear_13_382" x1="5" y1="24.5969" x2="255" y2="24.5969" gradientUnits="userSpaceOnUse">
<stop stop-color="#B488EB"/>
<stop offset="0.265625" stop-color="#08E2F0"/>
<stop offset="0.520833" stop-color="#08E2F0"/>
<stop offset="0.770833" stop-color="#CFFF04"/>
<stop offset="1" stop-color="#CFFF04"/>
</linearGradient>
<linearGradient id="paint15_linear_13_382" x1="5" y1="24.5969" x2="255" y2="24.5969" gradientUnits="userSpaceOnUse">
<stop stop-color="#B488EB"/>
<stop offset="0.265625" stop-color="#08E2F0"/>
<stop offset="0.520833" stop-color="#08E2F0"/>
<stop offset="0.770833" stop-color="#CFFF04"/>
<stop offset="1" stop-color="#CFFF04"/>
</linearGradient>
<linearGradient id="paint16_linear_13_382" x1="5" y1="24.5969" x2="255" y2="24.5969" gradientUnits="userSpaceOnUse">
<stop stop-color="#B488EB"/>
<stop offset="0.265625" stop-color="#08E2F0"/>
<stop offset="0.520833" stop-color="#08E2F0"/>
<stop offset="0.770833" stop-color="#CFFF04"/>
<stop offset="1" stop-color="#CFFF04"/>
</linearGradient>
<linearGradient id="paint17_linear_13_382" x1="5" y1="24.5969" x2="255" y2="24.5969" gradientUnits="userSpaceOnUse">
<stop stop-color="#B488EB"/>
<stop offset="0.265625" stop-color="#08E2F0"/>
<stop offset="0.520833" stop-color="#08E2F0"/>
<stop offset="0.770833" stop-color="#CFFF04"/>
<stop offset="1" stop-color="#CFFF04"/>
</linearGradient>
</defs>
</svg>
